{
  "asset": {
    "generator": "Khronos glTF Blender I/O v3.5.30",
    "version": "2.0"
  },
  "scene": 0,
  "scenes": [
    {
      "name": "Scene",
      "nodes": [0, 8]
    }
  ],
  "nodes": [
    {
      "mesh": 0,
      "name": "Plane",
      "rotation": [
        0.6067497730255127, 0.20515553653240204, -0.15568242967128754,
        0.7520166039466858
      ],
      "scale": [2.73532772064209, 1.7195762395858765, 1.7195762395858765],
      "translation": [
        -0.6879985332489014, -0.16816702485084534, -1.069669246673584
      ]
    },
    {
      "name": "Bone.002",
      "rotation": [
        0.10886073857545853, 0.03917534276843071, -0.5565211772918701,
        0.8227386474609375
      ],
      "scale": [1, 0.9999999403953552, 1],
      "translation": [
        1.0803341865539551e-7, 0.5619431734085083, 5.570473149418831e-8
      ]
    },
    {
      "children": [1],
      "name": "Bone.001",
      "rotation": [
        -0.06194581091403961, 0.07940730452537537, -0.7760006189346313,
        0.6226397752761841
      ],
      "scale": [0.9999998807907104, 1, 1],
      "translation": [
        2.0954757928848267e-8, 0.5804421305656433, -4.6566128730773926e-9
      ]
    },
    {
      "name": "Bone.004",
      "rotation": [
        0.10827416926622391, -0.03593442961573601, 0.5488830804824829,
        0.8280777931213379
      ],
      "scale": [0.9999999403953552, 0.9999999403953552, 1.0000001192092896],
      "translation": [
        7.450580596923828e-9, 0.581012487411499, -1.2200325727462769e-7
      ]
    },
    {
      "children": [3],
      "name": "Bone.003",
      "rotation": [
        -0.061030421406030655, -0.07587321102619171, 0.7671869397163391,
        0.6339895129203796
      ],
      "scale": [1.0000001192092896, 1.0000001192092896, 1],
      "translation": [
        2.0954757928848267e-8, 0.5804421305656433, -4.6566128730773926e-9
      ]
    },
    {
      "children": [2, 4],
      "name": "Bone",
      "rotation": [
        -4.2726142623905616e-8, -3.8988883233059823e-8, 0.008981553837656975,
        0.9999596476554871
      ],
      "scale": [0.9999999403953552, 1.0000001192092896, 1.0000001192092896],
      "translation": [
        1.6298145055770874e-9, -2.2962922230362892e-8, -5.704350769519806e-9
      ]
    },
    {
      "name": "Bone.005",
      "rotation": [
        0.8318567872047424, -0.08224554359912872, -0.5048986077308655,
        0.21523800492286682
      ],
      "scale": [1, 1, 1.0000001192092896],
      "translation": [
        1.6298145055770874e-9, -2.2962922230362892e-8, -5.704350769519806e-9
      ]
    },
    {
      "mesh": 1,
      "name": "Short_Sleeves",
      "skin": 0
    },
    {
      "children": [7, 5, 6],
      "name": "Armature",
      "rotation": [
        0.004998764954507351, 0.4751470386981964, 2.9162963983253576e-5,
        0.8798922300338745
      ],
      "translation": [
        0.026967404410243034, 0.1538798213005066, 0.0280133206397295
      ]
    }
  ],
  "materials": [
    {
      "doubleSided": true,
      "emissiveFactor": [
        0.3936864137649536, 0.3936864137649536, 0.3936864137649536
      ],
      "name": "Material.002",
      "pbrMetallicRoughness": {
        "baseColorFactor": [0, 0, 0, 1]
      }
    },
    {
      "doubleSided": true,
      "name": "white.001",
      "pbrMetallicRoughness": {
        "baseColorFactor": [
          0.800000011920929, 0.800000011920929, 0.800000011920929, 1
        ],
        "metallicFactor": 0,
        "roughnessFactor": 0.5
      }
    }
  ],
  "meshes": [
    {
      "name": "Plane.001",
      "primitives": [
        {
          "attributes": {
            "POSITION": 0,
            "TEXCOORD_0": 1,
            "NORMAL": 2
          },
          "indices": 3,
          "material": 0
        }
      ]
    },
    {
      "name": "33000.001",
      "primitives": [
        {
          "attributes": {
            "POSITION": 4,
            "NORMAL": 5,
            "JOINTS_0": 6,
            "WEIGHTS_0": 7
          },
          "indices": 8,
          "material": 1
        }
      ]
    }
  ],
  "skins": [
    {
      "inverseBindMatrices": 9,
      "joints": [5, 2, 1, 4, 3, 6],
      "name": "Armature"
    }
  ],
  "accessors": [
    {
      "bufferView": 0,
      "componentType": 5126,
      "count": 4,
      "max": [1, 0, 1],
      "min": [-1, 0, -1],
      "type": "VEC3"
    },
    {
      "bufferView": 1,
      "componentType": 5126,
      "count": 4,
      "type": "VEC2"
    },
    {
      "bufferView": 2,
      "componentType": 5126,
      "count": 4,
      "type": "VEC3"
    },
    {
      "bufferView": 3,
      "componentType": 5123,
      "count": 6,
      "type": "SCALAR"
    },
    {
      "bufferView": 4,
      "componentType": 5126,
      "count": 34652,
      "max": [0.5043034553527832, 0.924526035785675, 0.7013356685638428],
      "min": [-0.5635256767272949, -0.87060546875, -0.6726234555244446],
      "type": "VEC3"
    },
    {
      "bufferView": 5,
      "componentType": 5126,
      "count": 34652,
      "type": "VEC3"
    },
    {
      "bufferView": 6,
      "componentType": 5121,
      "count": 34652,
      "type": "VEC4"
    },
    {
      "bufferView": 7,
      "componentType": 5126,
      "count": 34652,
      "type": "VEC4"
    },
    {
      "bufferView": 8,
      "componentType": 5123,
      "count": 206499,
      "type": "SCALAR"
    },
    {
      "bufferView": 9,
      "componentType": 5126,
      "count": 6,
      "type": "MAT4"
    }
  ],
  "bufferViews": [
    {
      "buffer": 0,
      "byteLength": 48,
      "byteOffset": 0,
      "target": 34962
    },
    {
      "buffer": 0,
      "byteLength": 32,
      "byteOffset": 48,
      "target": 34962
    },
    {
      "buffer": 0,
      "byteLength": 48,
      "byteOffset": 80,
      "target": 34962
    },
    {
      "buffer": 0,
      "byteLength": 12,
      "byteOffset": 128,
      "target": 34963
    },
    {
      "buffer": 0,
      "byteLength": 415824,
      "byteOffset": 140,
      "target": 34962
    },
    {
      "buffer": 0,
      "byteLength": 415824,
      "byteOffset": 415964,
      "target": 34962
    },
    {
      "buffer": 0,
      "byteLength": 138608,
      "byteOffset": 831788,
      "target": 34962
    },
    {
      "buffer": 0,
      "byteLength": 554432,
      "byteOffset": 970396,
      "target": 34962
    },
    {
      "buffer": 0,
      "byteLength": 412998,
      "byteOffset": 1524828,
      "target": 34963
    },
    {
      "buffer": 0,
      "byteLength": 384,
      "byteOffset": 1937828
    }
  ],
  "buffers": [
    {
      "byteLength": 1938212,
      "uri": "data:application/octet-stream;base64,"
    }
  ]
}
