{
	"asset":{
		"generator":"Khronos glTF Blender I/O v3.5.30",
		"version":"2.0"
	},
	"scene":0,
	"scenes":[
		{
			"name":"Scene",
			"nodes":[
				7
			]
		}
	],
	"nodes":[
		{
			"name":"Bone.002",
			"rotation":[
				0.2715083658695221,
				-0.08576083928346634,
				-0.21159997582435608,
				0.9349619150161743
			],
			"translation":[
				2.60770320892334e-08,
				0.5619431734085083,
				-7.450580596923828e-09
			]
		},
		{
			"children":[
				0
			],
			"name":"Bone.001",
			"rotation":[
				-0.20573216676712036,
				0.03547414392232895,
				-0.787053644657135,
				0.5804847478866577
			],
			"scale":[
				0.9999997019767761,
				0.9999998211860657,
				0.9999999403953552
			],
			"translation":[
				4.6566128730773926e-09,
				0.5804421901702881,
				-3.725290298461914e-09
			]
		},
		{
			"name":"Bone.004",
			"rotation":[
				0.45593151450157166,
				0.557502269744873,
				0.058621153235435486,
				0.6912895441055298
			],
			"scale":[
				1.0000001192092896,
				1,
				1.0000001192092896
			],
			"translation":[
				2.0489096641540527e-08,
				0.5758082270622253,
				7.450580596923828e-09
			]
		},
		{
			"children":[
				2
			],
			"name":"Bone.003",
			"rotation":[
				-0.2798517942428589,
				-0.09701165556907654,
				0.7210075259208679,
				0.626434326171875
			],
			"scale":[
				0.9999998211860657,
				1,
				0.9999999403953552
			],
			"translation":[
				4.6566128730773926e-09,
				0.5804421901702881,
				-3.725290298461914e-09
			]
		},
		{
			"children":[
				1,
				3
			],
			"name":"Bone",
			"rotation":[
				-3.737082110433221e-08,
				-3.1543457623683935e-08,
				0.008981551975011826,
				0.9999596476554871
			],
			"scale":[
				1.0000001192092896,
				1.0000001192092896,
				1.0000001192092896
			],
			"translation":[
				1.5133991837501526e-09,
				-8.032657206058502e-09,
				-2.0954757928848267e-09
			]
		},
		{
			"name":"Bone.005",
			"rotation":[
				-0.7070922255516052,
				-0.004438731353729963,
				0.7061424851417542,
				0.036928363144397736
			],
			"scale":[
				1,
				1.0000001192092896,
				1
			],
			"translation":[
				1.5133991837501526e-09,
				-8.032657206058502e-09,
				-2.0954757928848267e-09
			]
		},
		{
			"mesh":0,
			"name":"Short_Sleeves",
			"skin":0
		},
		{
			"children":[
				6,
				4,
				5
			],
			"name":"Armature",
			"rotation":[
				0.004998764954507351,
				0.475147008895874,
				2.916283301601652e-05,
				0.8798922300338745
			],
			"translation":[
				0.026967404410243034,
				0.1538798213005066,
				0.0280133206397295
			]
		}
	],
	"materials":[
		{
			"doubleSided":true,
			"name":"white",
			"pbrMetallicRoughness":{
				"baseColorFactor":[
					0.800000011920929,
					0.800000011920929,
					0.800000011920929,
					1
				],
				"metallicFactor":0,
				"roughnessFactor":0.5
			}
		}
	],
	"meshes":[
		{
			"name":"33000",
			"primitives":[
				{
					"attributes":{
						"POSITION":0,
						"NORMAL":1,
						"JOINTS_0":2,
						"WEIGHTS_0":3
					},
					"indices":4,
					"material":0
				}
			]
		}
	],
	"skins":[
		{
			"inverseBindMatrices":5,
			"joints":[
				4,
				1,
				0,
				3,
				2,
				5
			],
			"name":"Armature"
		}
	],
	"accessors":[
		{
			"bufferView":0,
			"componentType":5126,
			"count":34622,
			"max":[
				0.5043034553527832,
				0.9245260953903198,
				0.7013355493545532
			],
			"min":[
				-0.5635256767272949,
				-0.8706053495407104,
				-0.672623336315155
			],
			"type":"VEC3"
		},
		{
			"bufferView":1,
			"componentType":5126,
			"count":34622,
			"type":"VEC3"
		},
		{
			"bufferView":2,
			"componentType":5121,
			"count":34622,
			"type":"VEC4"
		},
		{
			"bufferView":3,
			"componentType":5126,
			"count":34622,
			"type":"VEC4"
		},
		{
			"bufferView":4,
			"componentType":5123,
			"count":206499,
			"type":"SCALAR"
		},
		{
			"bufferView":5,
			"componentType":5126,
			"count":6,
			"type":"MAT4"
		}
	],
	"bufferViews":[
		{
			"buffer":0,
			"byteLength":415464,
			"byteOffset":0,
			"target":34962
		},
		{
			"buffer":0,
			"byteLength":415464,
			"byteOffset":415464,
			"target":34962
		},
		{
			"buffer":0,
			"byteLength":138488,
			"byteOffset":830928,
			"target":34962
		},
		{
			"buffer":0,
			"byteLength":553952,
			"byteOffset":969416,
			"target":34962
		},
		{
			"buffer":0,
			"byteLength":412998,
			"byteOffset":1523368,
			"target":34963
		},
		{
			"buffer":0,
			"byteLength":384,
			"byteOffset":1936368
		}
	],
	"buffers":[
		{
			"byteLength":1936752,
			"uri":"data:application/octet-stream;base64,"
		}
	]
}
